<svg version="1.0" xmlns="http://www.w3.org/2000/svg" viewBox="0 0 50.000000 50.000000" preserveAspectRatio="xMidYMid meet">
    <title>S Alphabet</title>
    <g transform="translate(0.000000,50.000000) scale(0.100000,-0.100000)" fill="whitesmoke" stroke="none">
        <path d="M125 450 c-23 -9 -39 -26 -48 -52 -5 -15 -3 -15 26 2 27 17 51 20
165 20 125 0 132 1 132 20 0 19 -6 20 -127 19 -71 0 -137 -4 -148 -9z" />
        <path d="M120 387 c-53 -27 -64 -113 -19 -153 17 -16 42 -20 141 -24 103 -4
122 -8 134 -24 20 -28 17 -63 -6 -86 -18 -18 -33 -20 -160 -20 -133 0 -140 -1
-140 -20 0 -19 7 -20 146 -20 l146 0 34 34 c47 47 47 95 0 142 l-34 34 -109 0
c-94 0 -112 3 -126 18 -22 24 -21 55 1 75 15 14 41 17 145 17 120 0 127 1 127
20 0 19 -7 20 -127 20 -83 0 -137 -5 -153 -13z" />
        <path d="M130 305 c0 -28 27 -35 126 -35 91 0 105 -2 138 -25 43 -29 47 -17 7
27 l-29 33 -121 5 c-81 3 -121 2 -121 -5z" />
        <path d="M213 143 c-135 -3 -143 -5 -143 -23 0 -19 7 -20 134 -20 109 0 138 3
150 16 17 16 22 36 9 32 -5 -1 -72 -4 -150 -5z" />
    </g>
</svg>